<?xml version="1.0" encoding="utf-8"?>
<svg viewBox="322.446 35.959 493.27 170.383" xmlns="http://www.w3.org/2000/svg">
  <path d="M 322.446 35.959 L 815.716 35.959 L 815.716 206.342 L 322.446 206.342 Z M 485.245 145.111 C 470.971 145.111 459.405 156.677 459.405 170.95 C 459.405 185.224 470.971 196.79 485.245 196.79 C 499.519 196.79 511.084 185.224 511.084 170.95 C 511.084 156.677 499.519 145.111 485.245 145.111 Z M 631.37 180.752 C 633.152 180.752 634.043 179.861 634.043 178.079 L 634.043 52.447 C 634.043 50.665 633.152 49.774 631.37 49.774 C 630.22 49.774 601.245 50.273 568.554 50.834 C 525.509 51.582 476.014 52.447 474.998 52.447 C 473.216 52.447 472.771 51.556 471.88 50.665 C 470.989 49.774 466.533 46.21 465.642 46.21 L 458.514 46.21 C 457.623 46.21 456.732 47.101 456.732 47.992 L 456.732 135.31 C 456.732 137.538 454.059 137.983 451.832 137.983 C 449.604 137.983 446.931 137.538 446.931 135.31 L 446.931 47.992 C 446.931 47.101 446.04 46.21 445.149 46.21 L 443.367 46.21 C 442.031 46.21 441.826 47.617 440.694 47.992 C 439.563 48.366 435.375 50.219 434.457 50.665 C 417.974 58.684 364.068 90.76 364.068 153.13 L 364.068 168.277 C 364.068 169.168 363.177 170.059 362.286 170.059 L 353.821 170.059 C 351.594 170.059 349.812 172.732 349.812 175.405 C 349.812 178.079 351.594 180.752 353.821 180.752 L 444.258 180.752 C 446.04 180.752 446.931 179.861 446.931 178.079 L 446.931 154.912 C 446.931 153.576 447.377 153.13 448.713 153.13 L 454.059 153.13 C 455.396 153.13 456.323 153.3 456.732 152.685 C 457.276 151.874 462.64 143.32 473.76 139.24 C 477.288 137.939 481.404 137.092 486.136 137.092 C 496.24 137.092 503.59 141.004 508.411 144.906 C 510.264 146.412 511.743 147.909 512.866 149.192 C 514.496 151.045 515.37 152.426 515.539 152.685 C 515.886 153.211 516.875 153.13 518.212 153.13 L 544.497 153.13 C 545.388 153.13 546.724 154.467 546.724 155.803 L 546.724 176.742 C 546.724 178.524 548.506 180.752 550.288 180.752 Z M 738.291 145.111 C 724.021 145.111 712.452 156.68 712.452 170.95 C 712.452 185.22 724.021 196.789 738.291 196.789 C 752.562 196.789 764.13 185.22 764.13 170.95 C 764.13 156.68 752.562 145.111 738.291 145.111 Z M 700.868 179.861 C 702.65 179.861 703.541 178.97 703.541 177.187 L 703.541 171.841 C 703.541 152.239 719.579 136.201 739.181 136.201 C 758.784 136.201 774.822 152.239 774.822 171.841 L 774.822 177.187 C 774.822 178.97 775.713 179.861 777.495 179.861 L 785.514 179.861 C 787.296 179.861 788.187 178.97 788.187 177.187 L 788.187 125.509 C 788.187 121.5 785.068 119.272 782.841 118.381 C 780.613 117.49 721.361 101.006 720.025 100.561 C 718.688 100.115 717.797 99.224 717.352 97.888 L 710.669 78.09 L 705.323 62.248 C 704.432 59.575 702.089 57.793 699.977 57.793 L 647.408 57.793 C 645.626 57.793 644.735 58.684 644.735 60.466 L 644.735 177.187 C 644.735 178.97 645.626 179.861 647.408 179.861 Z" style="fill: rgb(255, 255, 255); stroke: rgb(255, 255, 255);"/>
</svg>