<?xml version="1.0" encoding="utf-8"?>
<svg viewBox="0.721 1.442 383.279 382.246" width="383.279" height="382.246" xmlns="http://www.w3.org/2000/svg">
  <ellipse style="fill: rgb(255, 0, 0); stroke: rgba(7, 7, 7, 0);" cx="192.36" cy="188.438" rx="192" ry="192" transform="matrix(0.9999999999999999, 0.00030300000798888505, 0, 0.9999999999999999, -0.3603340089321705, 3.6038861274719167)"/>
  <ellipse style="paint-order: fill; fill: rgb(255, 255, 255); stroke: rgb(255, 255, 255);" cx="192" cy="192.926" rx="150" ry="150" transform="matrix(0.9999999999999999, 0, 0, 0.9999999999999999, 0, -7.105427357601002e-15)"/>
  <path d="M 313.022 201.247 C 314.738 197.425 313.925 192.995 310.945 189.956 L 249.542 127.42 C 247.51 125.336 244.666 124.163 241.685 124.163 C 238.706 124.163 235.861 125.336 233.83 127.42 L 172.426 189.956 C 169.447 192.995 168.634 197.425 170.349 201.247 C 172.065 205.067 175.993 207.543 180.282 207.543 L 220.014 207.543 L 220.014 290.925 C 220.014 298.611 213.557 304.821 205.566 304.821 L 169.447 304.821 C 161.455 304.821 154.998 311.031 154.998 318.717 L 154.998 332.615 C 154.998 340.301 161.455 346.512 169.447 346.512 L 205.566 346.512 C 237.487 346.512 263.358 321.627 263.358 290.925 L 263.358 207.543 L 303.089 207.543 C 307.424 207.543 311.306 205.067 313.022 201.247 Z" style="transform-origin: 192.046866px 235.374999px;" transform="matrix(0.000001, -1, 1, 0.000001, 0.000130835764, 0.000123382481)"/>
</svg>