<?xml version="1.0" encoding="utf-8"?>
<svg viewBox="0.721 1.442 383.279 382.246" width="383.279" height="382.246" xmlns="http://www.w3.org/2000/svg">
  <ellipse style="fill: rgb(255, 0, 0); stroke: rgba(7, 7, 7, 0);" cx="192.36" cy="188.438" rx="192" ry="192" transform="matrix(0.9999999999999999, 0.00030300000798888505, 0, 0.9999999999999999, -0.3603340089321705, 3.6038861274719167)"/>
  <ellipse style="paint-order: fill; fill: rgb(255, 255, 255); stroke: rgb(255, 255, 255);" cx="192" cy="192.926" rx="150" ry="150" transform="matrix(0.9999999999999999, 0, 0, 0.9999999999999999, 0, -7.105427357601002e-15)"/>
  <path d="M 313.022 269.503 C 314.738 273.325 313.925 277.755 310.945 280.794 L 249.542 343.33 C 247.51 345.414 244.666 346.587 241.685 346.587 C 238.706 346.587 235.861 345.414 233.83 343.33 L 172.426 280.794 C 169.447 277.755 168.634 273.325 170.349 269.503 C 172.065 265.683 175.993 263.207 180.282 263.207 L 220.014 263.207 L 220.014 179.825 C 220.014 172.139 213.557 165.929 205.566 165.929 L 169.447 165.929 C 161.455 165.929 154.998 159.719 154.998 152.033 L 154.998 138.135 C 154.998 130.449 161.455 124.238 169.447 124.238 L 205.566 124.238 C 237.487 124.238 263.358 149.123 263.358 179.825 L 263.358 263.207 L 303.089 263.207 C 307.424 263.207 311.306 265.683 313.022 269.503 Z" style="transform-origin: 192.046884px 235.375001px;" transform="matrix(-0.000001, -1, 1, -0.000001, 0.000113304864, 0.000120758127)"/>
</svg>