<svg width="1097" height="232" viewBox="0 0 1097 232" fill="none" xmlns="http://www.w3.org/2000/svg">
<path d="M91 207H7C3 207 0 210 0 214V225C0 229 3 232 7 232H91C95 232 98 229 98 225V214C98 210 95 207 91 207Z" fill="#79AF28"/>
<path d="M313 207H229C225 207 222 210 222 214V225C222 229 225 232 229 232H313C317 232 320 229 320 225V214C320 210 317 207 313 207Z" fill="#79AF28"/>
<path d="M202 207H118C114 207 111 210 111 214V225C111 229 114 232 118 232H202C206 232 209 229 209 225V214C209 210 206 207 202 207Z" fill="#79AF28"/>
<path d="M757 207H673C669 207 666 210 666 214V225C666 229 669 232 673 232H757C761 232 764 229 764 225V214C764 210 761 207 757 207Z" fill="#79AF28"/>
<path d="M979 207H895C891 207 888 210 888 214V225C888 229 891 232 895 232H979C983 232 986 229 986 225V214C986 210 983 207 979 207Z" fill="#79AF28"/>
<path d="M868 207H784C780 207 777 210 777 214V225C777 229 780 232 784 232H868C872 232 875 229 875 225V214C875 210 872 207 868 207Z" fill="#79AF28"/>
<path d="M424 207H340C336 207 333 210 333 214V225C333 229 336 232 340 232H424C428 232 431 229 431 225V214C431 210 428 207 424 207Z" fill="#79AF28"/>
<path d="M646 207H562C558 207 555 210 555 214V225C555 229 558 232 562 232H646C650 232 653 229 653 225V214C653 210 650 207 646 207Z" fill="#79AF28"/>
<path d="M535 207H451C447 207 444 210 444 214V225C444 229 447 232 451 232H535C539 232 542 229 542 225V214C542 210 539 207 535 207Z" fill="#79AF28"/>
<path d="M1090 207H1006C1002 207 999 210 999 214V225C999 229 1002 232 1006 232H1090C1094 232 1097 229 1097 225V214C1097 210 1094 207 1090 207Z" fill="#79AF28"/>
<path d="M325 155.28C325 157.89 327.11 160 329.72 160H375.5C377.99 160 380 162.01 380 164.5V179.5C380 181.98 377.99 184 375.5 184H322.5C322.04 184 321.59 184 321.14 183.95C319.16 183.83 317.26 183.44 315.46 182.81C307.05 179.9 301 171.91 301 162.5V68.5C301 59.08 307.05 51.09 315.47 48.18C317.26 47.55 319.17 47.16 321.14 47.05C321.59 47.01 322.04 47 322.5 47H367.5C369.99 47 372 49.01 372 51.5V66.5C372 68.99 369.99 71 367.5 71H329.72C327.11 71 325 73.11 325 75.72V155.27V155.28Z" fill="#79AF28"/>
<path d="M551 164V179C551 181.76 548.76 184 546 184H484C481.24 184 479 181.76 479 179V37C479 34.24 481.24 32 484 32H499C501.76 32 504 34.24 504 37V155.84C504 157.58 505.41 159 507.16 159H546C548.76 159 551 161.24 551 164Z" fill="#79AF28"/>
<path d="M91.85 178.31L72.1 107.64C90 97.78 90 79.02 90 57.5C90 25.74 90 0 32.5 0H4.63C2.07 0 0 2.01 0 4.5V179.29C0 181.89 2.01 184 4.5 184H21.5C23.98 184 26 181.89 26 179.29V118.45C26 116.44 27.67 114.83 29.67 114.93C30.61 114.98 31.55 115 32.5 115C36.67 115 40.53 114.86 44.12 114.6C45.78 114.48 47.3 115.54 47.76 117.14L65.97 180.74C66.56 182.86 68.6 184.24 70.79 184H88C90.77 183.7 92.6 180.98 91.85 178.31ZM29.5 90C29.5 90 29.48 90 29.46 90C27.54 90 26 88.4 26 86.47V28.53C26 26.61 27.54 25.01 29.46 25C29.47 25 29.48 25 29.5 25C62 25 62 39.55 62 57.5C62 75.45 62 90 29.5 90Z" fill="#79AF28"/>
<path d="M186.32 164V180C186.32 182.49 184.31 184.5 181.82 184.5H133.82C133.65 184.5 133.48 184.5 133.32 184.47C133.16 184.49 132.99 184.5 132.82 184.5H116.82C114.34 184.5 112.32 182.49 112.32 180V50C112.32 47.51 114.33 45.5 116.82 45.5H132.82C132.99 45.5 133.16 45.5 133.32 45.53C133.48 45.51 133.65 45.5 133.82 45.5H173.82C176.31 45.5 178.32 47.51 178.32 50V66C178.32 68.49 176.31 70.5 173.82 70.5H140.26C138.64 70.5 137.32 71.82 137.32 73.44V99.56C137.32 101.18 138.64 102.5 140.26 102.5H156.82C159.31 102.5 161.32 104.51 161.32 107V123C161.32 125.49 159.31 127.5 156.82 127.5H140.26C138.64 127.5 137.32 128.82 137.32 130.44V156.56C137.32 158.18 138.64 159.5 140.26 159.5H181.82C184.31 159.5 186.32 161.51 186.32 164Z" fill="#79AF28"/>
<path d="M424.32 69.09C405.83 70.4 390.98 85.58 390.05 104.09C389.75 110.15 390.9 115.9 393.19 121.05L394.83 124.3L394.9 124.42L424.46 182.95C425.11 184.24 426.94 184.26 427.62 182.99L458.94 124.7L460.17 122.4C462.62 117.46 464 111.89 464 106C464 84.68 445.97 67.57 424.32 69.09ZM425.44 94.09C433.29 93.1 439.89 99.7 438.9 107.55C438.23 112.9 433.91 117.22 428.56 117.89C420.71 118.88 414.11 112.28 415.1 104.43C415.77 99.08 420.09 94.76 425.44 94.09Z" fill="#E4C706"/>
<path d="M282.81 158.09C282.81 158.09 282.83 158.11 282.81 158.13C282.35 161.97 281.16 165.58 279.36 168.82L278.71 169.92C275.9 174.54 271.84 178.3 267.01 180.76C263.04 182.78 258.54 183.92 253.79 183.92C253.53 183.92 253.27 183.92 253.02 183.91H209.76C207.09 183.92 204.92 181.73 204.92 179.03V162.71C204.92 160.89 205.92 159.28 207.4 158.45L250.87 158.39C251.42 158.39 251.92 158.3 252.38 158.13C255.55 157.04 256.55 152.56 253.53 150.31L216.71 123L209.44 117.62L209.28 117.5L209.14 117.39H209.13C205.07 113.93 202.04 109.49 200.39 104.6L200.03 103.43C199.15 100.34 198.8 97.11 199.11 93.84C199.11 93.84 199.09 93.82 199.11 93.81C199.57 89.96 200.76 86.35 202.56 83.12L203.2 82.01C206.03 77.41 210.08 73.64 214.9 71.18C218.87 69.14 223.37 68 228.13 68C228.39 68 228.65 68 228.9 68.02V68H272.16C274.84 68 277 70.17 277 72.85V88.97C277 91.02 275.73 92.78 273.92 93.48L231.14 93.53C230.56 93.53 230.03 93.63 229.55 93.81C226.45 94.95 225.48 99.37 228.47 101.6L261.73 126.39L273.4 135.09C277.16 138.46 279.97 142.69 281.53 147.34L281.89 148.51C282.78 151.59 283.12 154.82 282.81 158.09Z" fill="#79AF28"/>
<circle cx="1042" cy="174" r="29" fill="#E4C706"/>
<path d="M785 174C785 190.016 772.016 203 756 203C739.984 203 727 190.016 727 174C727 157.984 739.984 145 756 145C772.016 145 785 157.984 785 174Z" fill="#E4C706"/>
<path d="M970 183H939C937 183 936 182 936 180V83.5V49C936 47 937 46 939 46H998C1000.37 46 1003 48 1004 51L1010 68.7778L1017.5 91C1018 92.5 1019 93.5 1020.5 94C1022 94.5 1088.5 113 1091 114C1093.5 115 1097 117.5 1097 122V180C1097 182 1096 183 1094 183H1085C1083 183 1082 182 1082 180V174C1082 152 1064 134 1042 134C1020 134 1002 152 1002 174V180C1002 182 1001 183 999 183H970Z" fill="#79AF28"/>
<path d="M828 183C826 183 824 180.5 824 178.5V155C824 153.5 822.5 152 821.5 152H792C790.5 152 789.395 152.093 789 151.5C788.809 151.214 787.825 149.655 786 147.577C784.74 146.141 783.078 144.457 781 142.774C775.586 138.387 767.344 134 756 134C750.693 134 746.072 134.948 742.105 136.405C729.626 140.985 723.608 150.588 723 151.5C722.54 152.19 721.5 152 720 152H714C712.5 152 712 152.5 712 154V132C712 134.5 715 135 717.5 135C720 135 723 134.5 723 132V128.5V34C723 33 724 32 725 32H733C734 32 739 36 740 37C741 38 741.5 39 743.5 39C744.637 39 800.194 38.0311 848.5 37.1945C885.194 36.5591 917.705 36 919 36C921 36 922 37 922 39V180C922 182 921 183 919 183H880H876.5H828Z" fill="#79AF28"/>
<path d="M712 180V154V132V34C712 33 711 32 710 32H708C706.5 32 706.27 33.5767 705 34C703.73 34.4233 699.028 36.5 698 37C679.5 46 619 82 619 152V169C619 170 618 171 617 171H607.5C605 171 603 174 603 177C603 180 605 183 607.5 183H619H709C711 183 712 182 712 180Z" fill="#E4C706"/>
<path d="M824 178.5C824 180.5 826 183 828 183H876.5C876.833 180 876.4 172.9 872 168.5C866.5 163 854.778 158.5 854 151.5C853.5 147 843.5 133 831.5 128.5C819.5 124 808 125.5 802 127C792 129.5 784.167 137.182 781 142.774C783.078 144.457 784.74 146.141 786 147.577C787.825 149.655 788.809 151.214 789 151.5C789.395 152.093 790.5 152 792 152H821.5C822.5 152 824 153.5 824 155V178.5Z" fill="url(#paint0_linear_22_142)"/>
<path d="M720 152C721.5 152 722.54 152.19 723 151.5C723.608 150.588 729.626 140.985 742.105 136.405C746.072 134.948 750.693 134 756 134C759.652 134 762.982 134.455 766 135.217C772.5 136.86 772.5 128.5 779 123.5C788 116.5 793.545 108.5 794.5 101.5C795.795 92 793 79 800.5 72.5C808 66 808 57.5 807.5 52C807 46.5 798.5 39 794.5 38.13C746.194 38.9665 744.637 39 743.5 39C741.5 39 741 38 740 37C739 36 734 32 733 32H725C724 32 723 33 723 34V128.5V132C723 134.5 720 135 717.5 135C715 135 712 134.5 712 132V154C712 152.5 712.5 152 714 152H720Z" fill="url(#paint1_linear_22_142)"/>
<path d="M939 46C937 46 936 47 936 49V83.5C936.5 88 943.533 91.2392 950 92C958.5 93 968.938 87.0623 977 79C982 74 993.114 74.5877 996 75C999.5 75.5 1004 75.5 1006.5 73.5C1009 71.5 1009.83 69.6852 1010 68.7778L1004 51C1003 48 1000.37 46 998 46H939Z" fill="url(#paint2_linear_22_142)"/>
<defs>
<linearGradient id="paint0_linear_22_142" x1="820.5" y1="132" x2="799" y2="191.5" gradientUnits="userSpaceOnUse">
<stop stop-color="#79AF28"/>
<stop offset="1" stop-color="#E4C706"/>
</linearGradient>
<linearGradient id="paint1_linear_22_142" x1="819" y1="58.5" x2="712" y2="107" gradientUnits="userSpaceOnUse">
<stop stop-color="#79AF28"/>
<stop offset="1" stop-color="#E4C706"/>
</linearGradient>
<linearGradient id="paint2_linear_22_142" x1="973" y1="92" x2="954" y2="36" gradientUnits="userSpaceOnUse">
<stop stop-color="#79AF28"/>
<stop offset="0.769197" stop-color="#B9BD14"/>
<stop offset="1" stop-color="#E4C706"/>
</linearGradient>
</defs>
</svg>