<svg width="48" height="48" viewBox="0 0 48 48" fill="none" xmlns="http://www.w3.org/2000/svg">
<path d="M23.9997 19.3333C28.51 19.3333 32.1663 15.677 32.1663 11.1667C32.1663 6.65635 28.51 3 23.9997 3C19.4893 3 15.833 6.65635 15.833 11.1667C15.833 15.677 19.4893 19.3333 23.9997 19.3333Z" fill="#EEEEEE" stroke="#EEEEEE" stroke-width="5.33333" stroke-linecap="round" stroke-linejoin="round"/>
<path d="M3 43.5998V44.9998H45V43.5998C45 38.3727 45 35.7591 43.9828 33.7626C43.088 32.0064 41.6601 30.5786 39.9039 29.6837C37.9074 28.6665 35.2938 28.6665 30.0667 28.6665H17.9333C12.7062 28.6665 10.0926 28.6665 8.09612 29.6837C6.33991 30.5786 4.91209 32.0064 4.01728 33.7626C3 35.7591 3 38.3727 3 43.5998Z" fill="#EEEEEE" stroke="#EEEEEE" stroke-width="5.33333" stroke-linecap="round" stroke-linejoin="round"/>
</svg>
