<svg width="268" height="265" viewBox="0 0 268 265" fill="none" xmlns="http://www.w3.org/2000/svg">
<path d="M90.6637 114.313L72.1754 69.0069C88.9319 62.6858 88.9319 50.6589 88.9319 36.8627C88.9319 16.5017 88.9319 0 35.1053 0H9.01585C6.6194 0 4.68164 1.28859 4.68164 2.8849V114.941C4.68164 116.608 6.56323 117.961 8.89415 117.961H24.8081C27.1296 117.961 29.0206 116.608 29.0206 114.941V75.9371C29.0206 74.6485 30.5839 73.6164 32.4561 73.6805C33.3361 73.7125 34.216 73.7253 35.1053 73.7253C39.0089 73.7253 42.6223 73.6356 45.983 73.4689C47.5369 73.392 48.9598 74.0715 49.3904 75.0973L66.437 115.871C66.9894 117.23 68.899 118.114 70.9491 117.961H87.0596C89.6527 117.768 91.3657 116.024 90.6637 114.313ZM32.297 57.6981C32.297 57.6981 32.2783 57.6981 32.2595 57.6981C30.4622 57.6981 29.0206 56.6723 29.0206 55.435V18.2903C29.0206 17.0594 30.4622 16.0337 32.2595 16.0272C32.2689 16.0272 32.2783 16.0272 32.297 16.0272C62.7207 16.0272 62.7207 25.3551 62.7207 36.8627C62.7207 48.3702 62.7207 57.6981 32.297 57.6981Z" fill="#79AF28"/>
<path d="M90.6637 114.313L72.1754 69.0069C88.9319 62.6858 88.9319 50.6589 88.9319 36.8627C88.9319 16.5017 88.9319 0 35.1053 0H9.01585C6.6194 0 4.68164 1.28859 4.68164 2.8849V114.941C4.68164 116.608 6.56323 117.961 8.89415 117.961H24.8081C27.1296 117.961 29.0206 116.608 29.0206 114.941V75.9371C29.0206 74.6485 30.5839 73.6164 32.4561 73.6805C33.3361 73.7125 34.216 73.7253 35.1053 73.7253C39.0089 73.7253 42.6223 73.6356 45.983 73.4689C47.5369 73.392 48.9598 74.0715 49.3904 75.0973L66.437 115.871C66.9894 117.23 68.899 118.114 70.9491 117.961H87.0596C89.6527 117.768 91.3657 116.024 90.6637 114.313ZM32.297 57.6981C32.297 57.6981 32.2783 57.6981 32.2595 57.6981C30.4622 57.6981 29.0206 56.6723 29.0206 55.435V18.2903C29.0206 17.0594 30.4622 16.0337 32.2595 16.0272C32.2689 16.0272 32.2783 16.0272 32.297 16.0272C62.7207 16.0272 62.7207 25.3551 62.7207 36.8627C62.7207 48.3702 62.7207 57.6981 32.297 57.6981Z" fill="white"/>
<path d="M176.025 119.773V135.944C176.025 138.461 174.169 140.493 171.869 140.493H127.533C127.376 140.493 127.219 140.493 127.072 140.462C126.924 140.483 126.767 140.493 126.61 140.493H111.831C109.541 140.493 107.675 138.461 107.675 135.944V4.54833C107.675 2.03159 109.531 0 111.831 0H126.61C126.767 0 126.924 -1.23463e-06 127.072 0.0303209C127.219 0.0101062 127.376 0 127.533 0H164.479C166.779 0 168.636 2.03159 168.636 4.54833V20.7202C168.636 23.2369 166.779 25.2685 164.479 25.2685H133.482C131.985 25.2685 130.766 26.6027 130.766 28.2401V54.6406C130.766 56.278 131.985 57.6121 133.482 57.6121H148.777C151.077 57.6121 152.934 59.6437 152.934 62.1605V78.3323C152.934 80.849 151.077 82.8806 148.777 82.8806H133.482C131.985 82.8806 130.766 84.2148 130.766 85.8522V112.253C130.766 113.89 131.985 115.224 133.482 115.224H171.869C174.169 115.224 176.025 117.256 176.025 119.773Z" fill="white"/>
<path d="M267.678 91.6893C267.678 91.6893 267.697 91.7097 267.678 91.73C267.247 95.6382 266.132 99.3123 264.445 102.61L263.836 103.729C261.202 108.431 257.397 112.258 252.871 114.762C249.15 116.818 244.933 117.978 240.481 117.978C240.238 117.978 239.994 117.978 239.76 117.968H199.218C196.716 117.978 194.682 115.749 194.682 113.001V96.3913C194.682 94.539 195.62 92.9005 197.007 92.0557L237.745 91.9947C238.26 91.9947 238.729 91.9031 239.16 91.73C242.131 90.6207 243.068 86.0612 240.238 83.7712L205.731 55.9764L198.918 50.5009L198.768 50.3788L198.637 50.2668H198.628C194.823 46.7454 191.983 42.2266 190.437 37.2497L190.1 36.059C189.275 32.9141 188.947 29.6268 189.237 26.2987C189.237 26.2987 189.219 26.2784 189.237 26.2682C189.669 22.3498 190.784 18.6758 192.471 15.3884L193.07 14.2587C195.723 9.57705 199.518 5.74012 204.035 3.23645C207.756 1.16024 211.973 0 216.434 0C216.678 0 216.921 0 217.156 0.0203551V0H257.697C260.209 0 262.233 2.20852 262.233 4.9361V21.3423C262.233 23.4287 261.043 25.2199 259.347 25.9323L219.255 25.9832C218.711 25.9832 218.214 26.085 217.765 26.2682C214.859 27.4284 213.95 31.9269 216.753 34.1965L258.859 68.281C262.383 71.7108 265.016 76.0159 266.478 80.7485L266.816 81.9393C267.65 85.0739 267.968 88.3613 267.678 91.6893Z" fill="white"/>
<path d="M267.783 248.422V260.687C267.783 262.943 265.511 264.775 262.712 264.775H199.823C197.023 264.775 194.751 262.943 194.751 260.687V144.581C194.751 142.324 197.023 140.493 199.823 140.493H215.038C217.837 140.493 220.11 142.324 220.11 144.581V241.75C220.11 243.173 221.54 244.334 223.315 244.334H262.712C265.511 244.334 267.783 246.165 267.783 248.422Z" fill="white"/>
<path d="M176.025 119.773V135.944C176.025 138.461 174.169 140.493 171.869 140.493H127.533C127.376 140.493 127.219 140.493 127.072 140.462C126.924 140.483 126.767 140.493 126.61 140.493H111.831C109.541 140.493 107.675 138.461 107.675 135.944V4.54833C107.675 2.03159 109.531 0 111.831 0H126.61C126.767 0 126.924 -1.23313e-06 127.072 0.0303209C127.219 0.0101062 127.376 0 127.533 0H164.479C166.779 0 168.636 2.03159 168.636 4.54833V20.7202C168.636 23.2369 166.779 25.2685 164.479 25.2685H133.482C131.985 25.2685 130.766 26.6027 130.766 28.2401V54.6406C130.766 56.2779 131.985 57.6121 133.482 57.6121H148.777C151.077 57.6121 152.934 59.6437 152.934 62.1605V78.3323C152.934 80.849 151.077 82.8806 148.777 82.8806H133.482C131.985 82.8806 130.766 84.2148 130.766 85.8522V112.253C130.766 113.89 131.985 115.224 133.482 115.224H171.869C174.169 115.224 176.025 117.256 176.025 119.773Z" fill="white"/>
<path d="M267.678 91.6893C267.678 91.6893 267.697 91.7097 267.678 91.73C267.247 95.6382 266.132 99.3123 264.445 102.61L263.836 103.729C261.202 108.431 257.398 112.258 252.871 114.762C249.151 116.818 244.933 117.978 240.482 117.978C240.238 117.978 239.995 117.978 239.76 117.968H199.219C196.716 117.978 194.683 115.749 194.683 113.001V96.3914C194.683 94.539 195.62 92.9005 197.007 92.0557L237.745 91.9947C238.261 91.9947 238.729 91.9031 239.16 91.73C242.131 90.6207 243.068 86.0612 240.238 83.7712L205.732 55.9764L198.919 50.5009L198.769 50.3788L198.638 50.2668H198.628C194.823 46.7454 191.984 42.2266 190.437 37.2497L190.1 36.059C189.275 32.9141 188.947 29.6268 189.238 26.2987C189.238 26.2987 189.219 26.2784 189.238 26.2682C189.669 22.3498 190.784 18.6758 192.471 15.3884L193.071 14.2587C195.723 9.57705 199.518 5.74013 204.036 3.23645C207.756 1.16024 211.973 0 216.434 0C216.678 0 216.922 0 217.156 0.0203551V0H257.698C260.209 0 262.233 2.20852 262.233 4.9361V21.3423C262.233 23.4287 261.043 25.2199 259.347 25.9323L219.255 25.9832C218.712 25.9832 218.215 26.085 217.765 26.2682C214.86 27.4284 213.951 31.9269 216.753 34.1965L247.923 59.4266L258.86 68.281C262.383 71.7108 265.017 76.0159 266.479 80.7485L266.816 81.9393C267.65 85.0739 267.969 88.3613 267.678 91.6893Z" fill="white"/>
<path d="M267.783 248.422V260.686C267.783 262.943 265.511 264.775 262.711 264.775H199.823C197.023 264.775 194.751 262.943 194.751 260.686V144.581C194.751 142.324 197.023 140.493 199.823 140.493H215.038C217.837 140.493 220.109 142.324 220.109 144.581V241.75C220.109 243.173 221.539 244.334 223.315 244.334H262.711C265.511 244.334 267.783 246.165 267.783 248.422Z" fill="white"/>
<path d="M139.373 154.987C122.294 156.157 108.577 169.717 107.718 186.251C107.441 191.665 108.503 196.801 110.619 201.401L112.133 204.305L112.198 204.412L139.502 256.695C140.103 257.847 141.793 257.865 142.421 256.731L171.351 204.662L172.487 202.607C174.75 198.195 176.025 193.219 176.025 187.958C176.025 168.913 159.371 153.629 139.373 154.987ZM140.408 177.319C147.659 176.434 153.755 182.33 152.84 189.342C152.222 194.121 148.231 197.98 143.29 198.579C136.039 199.463 129.942 193.567 130.857 186.555C131.475 181.776 135.466 177.917 140.408 177.319Z" fill="url(#paint0_linear_44_2)"/>
<path d="M30.4359 231.516C30.4359 233.884 33.1117 235.798 36.4216 235.798H94.478C97.6358 235.798 100.185 237.622 100.185 239.88V253.488C100.185 255.738 97.6358 257.57 94.478 257.57H27.2655C26.6821 257.57 26.1114 257.57 25.5408 257.525C23.0298 257.416 20.6203 257.062 18.3376 256.491C7.67238 253.851 0 246.602 0 238.066V152.792C0 144.247 7.67238 136.998 18.3503 134.359C20.6203 133.787 23.0425 133.433 25.5408 133.333C26.1114 133.297 26.6821 133.288 27.2655 133.288H84.3328C87.4905 133.288 90.0395 135.111 90.0395 137.37V150.978C90.0395 153.237 87.4905 155.06 84.3328 155.06H36.4216C33.1117 155.06 30.4359 156.974 30.4359 159.342V231.507V231.516Z" fill="#79AF28"/>
<path d="M30.4359 231.516C30.4359 233.884 33.1117 235.798 36.4216 235.798H94.478C97.6358 235.798 100.185 237.622 100.185 239.88V253.488C100.185 255.738 97.6358 257.57 94.478 257.57H27.2655C26.6821 257.57 26.1114 257.57 25.5408 257.525C23.0298 257.416 20.6203 257.062 18.3376 256.491C7.67238 253.851 0 246.602 0 238.066V152.792C0 144.247 7.67238 136.998 18.3503 134.359C20.6203 133.787 23.0425 133.433 25.5408 133.333C26.1114 133.297 26.6821 133.288 27.2655 133.288H84.3328C87.4905 133.288 90.0395 135.111 90.0395 137.37V150.978C90.0395 153.237 87.4905 155.06 84.3328 155.06H36.4216C33.1117 155.06 30.4359 156.974 30.4359 159.342V231.507V231.516Z" fill="white"/>
<defs>
<linearGradient id="paint0_linear_44_2" x1="111.21" y1="257.571" x2="189.051" y2="245.853" gradientUnits="userSpaceOnUse">
<stop offset="1" stop-color="#79AF28"/>
</linearGradient>
</defs>
</svg>
